 http://www.imdb.com/title/tt0487831/[Rating 8.9]


All are HDTV episodes which have been converted to MKV compression to reduce size (Use VLC player for these) Perfect quality!

General
Format : Matroska
File size : 104 MiB
Duration : 23mn 5s
Overall bit rate : 631 Kbps

Video
Format/Info : Advanced Video Codec
Duration : 23mn 5s
Bit rate : 492 Kbps
Width : 640 pixels
Height : 352 pixels
Display aspect ratio : 16:9
Frame rate : 25.000 fps
Resolution : 24 bits
Colorimetry : 4:2:0
Stream size : 81.2 MiB (78%)

Audio
Format : MPEG Audio
Format profile : Layer 3
Nominal bit rate : 128 Kbps
Channel(s) : 2 channels
Sampling rate : 48.0 KHz
Resolution : 16 bits
Stream size : 20.9 MiB (20%)
Language : English




Seed Comment and Enjoy